<svg xmlns="http://www.w3.org/2000/svg" viewBox="0 0 850 550" class="video-illustration">
 <g>
  <g id="svg_1" stroke-linejoin="round" stroke-linecap="round" data-name="2 px" stroke-width="2" fill="none">
   <path id="svg_2" d="m211.274,29c38.751,22.651 67.3,59.377 93.932,94.886c45.393,60.522 66.144,102.638 122.541,153.533c19.55,17.643 56.264,21.458 78.674,10.013c84.31,-43.051 5.319,-234.932 -25.937,-257.664"/>
   <path id="svg_3" d="m388.171,142.481c-14.484,14.685 0.662,39.531 7.63,55.787c5.947,13.876 13.22,25.513 20.5,38.621c27.426,49.369 97.533,43.5 108.713,-12.4c14.03,-70.152 -78.526,-140.432 -136.992,-81.966m127.633,-112.755c-4.783,8 -10.149,28.256 -10.576,33.8m329.874,-33.8c-0.69,21.792 -15.256,42.184 -23.108,53.178c-9.611,13.455 -196.088,195.656 -221.869,203.807c-22.754,7.194 -49.71,-6.714 -56.943,-24.577m-241.633,-170.954c11.56,-3.118 23.218,-4.875 34.834,-7.932m-17.244,-7.933c15.692,-19.347 38.925,-29.625 58.287,-43.456m7.587,21.038c9.393,-8.677 21.516,-13.255 30.7,-21.728"/>
   <path id="svg_4" d="m533.033,133.945c49.454,-81.006 149,-30.489 140.165,32.119c-2.686,19.03 -88.695,152.4 -130.683,68.423m-530.728,-143.69c20.425,68.05 70.166,103.217 120.286,146.176c28.318,24.273 51.822,58.438 82.527,80.37c73.633,52.6 172.494,112.978 264.37,87.922m0,0c13.206,4.359 33.548,12.441 48.23,15.642m13.318,-84.781c81.683,4.86 112.065,77.906 14.581,85.4m-84.944,-14.594c3.524,-13.725 17.01,-34.716 27.127,-41.764m54.505,-64.264c38.471,4.58 75.761,35.71 64.517,76.944m-553.813,-227.716c11.35,-43.522 61.29,-65.164 83.606,-93.854m399.858,221.676c3.881,11.183 7.05,25.585 7.05,37.239m-92.563,-22.5c-0.032,3.483 2.261,6.872 4.016,8.9m0.473,0.386c0.417,10.572 5.052,25.51 10.25,34.478m-10.25,-34.866c3.667,-3.559 13.346,-6.936 15.616,-7.647m37.511,-13.43c8.073,-2.606 22.125,-2.057 27.575,-1.444m7.372,36.12c-26.422,2.164 -53.375,11.11 -77.825,21.266m170.311,-293.977c10.363,17.618 22.173,32.572 35.593,47.67m8.9,-22.246c17.756,21.725 37.03,37.947 62.924,48.3m-43.858,-74.359c14.407,20.188 34.457,31.228 54.661,43.856m-275.475,246.282c5.878,15.344 14.976,46.469 21.23,63.521m25.267,-77.629c4.442,16.191 13.163,50.115 17.054,66.325m-42.094,11.783c13.988,0.845 31.485,-4.4 42.094,-11.783m-16.013,8.833c8.145,36.718 27.5,98.447 45.589,113.359m-59.72,-110.32c6.887,34.38 24.311,95.539 62.93,113.331m-39.48,-120.316c9.728,30.236 20.059,97.893 40.242,119.376m-138.612,-209.746c-1.532,17.138 -9.984,32.146 -18.608,46.518m-11.84,16.916c-8.194,9.343 -17.943,16.442 -28.333,22.836m-44.9,-72.937c-10.73,17.784 -31.412,37.047 -49.4,48.833"/>
   <path id="svg_5" d="m1,249.683c37.164,53.849 77.354,118.356 133.474,155.582c84.534,56.071 255.4,57.68 378.566,12.553m-375.012,-157.8c-17.757,17.377 -29.793,39.5 -40.754,61.426m62.609,2.955c-13.288,19.95 -24.844,39.164 -29.532,62.607m52.567,-3.543c14.405,-14.992 31.142,-27.648 38.982,-47.253m415.382,-84.793c35.391,38.417 31.869,86.859 -18.943,99.562m-195.306,-42.186c-16.416,29.357 -39.91,51.136 -66.737,69.915m-162.712,-281.568c-21.764,36.086 -50.153,64.224 -81.356,91.525"/>
  </g>
  <path id="svg_6" stroke-linejoin="round" stroke-linecap="round" data-name="1_px" d="m599.728,105.403c11.367,26.258 34.665,42.7 61.017,51.483m-254.873,5.085c15.287,-6.431 28.959,-15.713 41.314,-26.695m23.639,165.632c1.458,11.221 4.078,22.546 9.577,32.443m-5.277,-33.419a92.1,92.1 0 0 0 9.772,32.05m-5.082,-31.269c2.856,9.9 4.6,20.169 9.577,29.119m-4.886,-30.488a265.542,265.542 0 0 0 9.381,26.971m-4.105,-28.143c2.9,9.145 5.246,18.488 8.8,27.361m-4.695,-26.775c2.793,8.489 5.9,16.881 8.012,25.6m-3.321,-25.795c3.436,7.342 5.206,15.285 7.035,23.062m-2.541,-25.016c3.585,8.222 5.157,16.834 6.253,25.6m-1.953,-27.554a89.991,89.991 0 0 1 6.84,25.8m-1.172,-27.755c3.4,8.718 5.268,17.879 7.035,26.971m-1.368,-31.856a161.533,161.533 0 0 1 6.45,28.533m-0.782,-29.116c3.173,8.858 3.733,18.2 5.081,27.361m0.586,-26.192c3.29,7.481 3.755,15.69 4.691,23.648m0,-28.535c2.077,9.465 4.178,18.9 5.081,28.534m0.586,-25.211c2.333,7.908 2.958,16.144 3.909,24.234m-0.391,-25.407c2.136,8.624 2.948,17.5 4.3,26.189m-21.773,84.218c8.606,37.565 19.135,76.086 46.036,104.723m-41.666,-106.6c8.983,35.564 19.946,82.092 46.1,110.219m-36.398,-113.318c9.165,27.736 19.786,82.505 38.373,111.623m-89.108,-105.56a40.221,40.221 0 0 0 13.576,-18.45" fill="none"/>
  <path id="svg_7" class="CaligraphyStroke" data-name="4_px" stroke-linejoin="round" stroke-linecap="round" d="m584.573,509.403c-30.545,14.793 -90.686,-20.094 -124.131,-13.888c-29.164,5.411 19.647,23.863 -20.683,25.414c-9.231,0.355 -39.618,0.942 -40.466,7.9c-1.119,9.172 17.136,12.967 21.379,12.881" stroke-width="4" fill="none"/>
 </g>

</svg>